inDegrees=no
num_controls=7
num_derivatives=13
num_iterations=150
num_multipliers=7
num_parameters=0
num_slacks=7
num_states=26
objective=5.579628
objective_accelerations=0.604794
objective_balance=0.105689
objective_effort=0.446951
objective_height=4.360628
objective_ligament=0.061565
solver_duration=1754.846065
status=Solve_Succeeded
success=true
DataType=double
version=3
OpenSimVersion=4.4-2022-07-23-0e9fedc
endheader
time	/jointset/ground_pelvis/pelvis_tilt/value	/jointset/ground_pelvis/pelvis_tx/value	/jointset/ground_pelvis/pelvis_ty/value	/jointset/hip_l/hip_flexion_l/value	/jointset/hip_l/hip_adduction_l/value	/jointset/hip_l/hip_rotation_l/value	/jointset/back/lumbar_extension/value	/jointset/patellofemoral_l/patellar_flexion_l/value	/jointset/knee_l/knee_flexion_l/value	/jointset/knee_l/knee_adduction_l/value	/jointset/knee_l/knee_rotation_l/value	/jointset/ankle_l/ankle_angle_l/value	/jointset/subtalar_l/subtalar_angle_l/value	/jointset/ground_pelvis/pelvis_tilt/speed	/jointset/ground_pelvis/pelvis_tx/speed	/jointset/ground_pelvis/pelvis_ty/speed	/jointset/hip_l/hip_flexion_l/speed	/jointset/hip_l/hip_adduction_l/speed	/jointset/hip_l/hip_rotation_l/speed	/jointset/back/lumbar_extension/speed	/jointset/patellofemoral_l/patellar_flexion_l/speed	/jointset/knee_l/knee_flexion_l/speed	/jointset/knee_l/knee_adduction_l/speed	/jointset/knee_l/knee_rotation_l/speed	/jointset/ankle_l/ankle_angle_l/speed	/jointset/subtalar_l/subtalar_angle_l/speed	/forceset/tau_hip_flexion_l	/forceset/tau_hip_adduction_l	/forceset/tau_hip_rotation_l	/forceset/tau_knee_flexion_l	/forceset/tau_ankle_angle_l	/forceset/tau_subtalar_angle_l	/forceset/tau_lumbar_extension	lambda_cid13_p0	lambda_cid13_p1	lambda_cid13_p2	lambda_cid13_p3	lambda_cid13_p4	lambda_cid13_p5	lambda_cid14_p0	/jointset/ground_pelvis/pelvis_tilt/accel	/jointset/ground_pelvis/pelvis_tx/accel	/jointset/ground_pelvis/pelvis_ty/accel	/jointset/hip_l/hip_flexion_l/accel	/jointset/hip_l/hip_adduction_l/accel	/jointset/hip_l/hip_rotation_l/accel	/jointset/back/lumbar_extension/accel	/jointset/patellofemoral_l/patellar_flexion_l/accel	/jointset/knee_l/knee_flexion_l/accel	/jointset/knee_l/knee_adduction_l/accel	/jointset/knee_l/knee_rotation_l/accel	/jointset/ankle_l/ankle_angle_l/accel	/jointset/subtalar_l/subtalar_angle_l/accel	gamma_cid13_p0	gamma_cid13_p1	gamma_cid13_p2	gamma_cid13_p3	gamma_cid13_p4	gamma_cid13_p5	gamma_cid14_p0
0.5	-0.4621399304580702	-0.07309728081509345	0.7666650033952249	1.260443363080967	-0.3096396813269745	-0.05676216401503147	-0.3289807438307321	0.660009022338784	0.6600090223387788	-0.1735429624293021	0.1745013884747305	0.02562654192738871	-0.0509053408562172	-0.7906652368298893	-0.2726149700540797	-0.4805696729732918	2.370676744124621	-0.04123941614300271	0.5933088779444775	-0.6233860204450533	1.704201317286382	1.704201317286405	-0.005486159659747502	9.533106417546855e-05	0.2125276968960593	-0.01914156577409113	-0.2534448641095488	0.0179437760708358	-0.01952054179596158	-0.1876516735328731	0.1321753962949427	0.04655903311328122	0.2248549215843787	3.726688464767901	-23.66459678411627	6.558920905629922	-4.369476206876184	-608.1431276624965	-61.20952959950218	-29.95061347204661	0.6139036322716104	0.6867714313536567	-0.2873246070806122	-1.539473342053865	0.5610013404773209	-0.2691361809828283	1.779390432668498	-1.053475796615833	-1.053475796615843	0.01428411740792443	-0.03367882820837984	-0.05888797906794127	0.5482655033700574	-7.375487602803577e-08	-1.077792860584565e-06	4.166359443586793e-07	-1.164314521237118e-07	-2.2091942948961e-07	-4.860002163169998e-08	-1.94073306889967e-07
0.51	-0.4700142649089001	-0.07578878882737415	0.7618459352023693	1.284069164355314	-0.3100251260624858	-0.05084427574573139	-0.335125708276496	0.6769960177522715	0.6769960177522653	-0.1735984740249795	0.1745022694322131	0.02774813429039448	-0.05107052739968109	-0.7841031074598283	-0.265664197359517	-0.483147085849368	2.35418062831002	-0.03585879306205945	0.5901721572739239	-0.6055476793251557	1.692973753668035	1.692973753668025	-0.005593641295687868	9.658405805549426e-05	0.2117471350075961	-0.01390609847000734	-0.2617694750322052	0.01869703196495942	-0.01962399811717299	-0.1886218844550654	0.1319239211523447	0.04718408042589411	0.2312136710941541	3.409849887834839	-23.77495728293261	6.455870245275753	-4.35735502933865	-612.5550624677203	-60.80694709942078	-28.99298923815978	0.6921315488913512	0.7025741993573643	-0.2284612903790374	-1.750134764901943	0.5252770455385157	-0.350629624606593	1.794934359273215	-1.190959400710505	-1.190959400715419	-0.02004861317599758	0.01924525675573079	-0.09419739805150903	0.5097439300196031	-1.291303600173147e-07	-9.23302219606677e-07	6.695417326142996e-07	-5.550594869928555e-08	-2.456049045913019e-07	-1.420388025543873e-09	-2.170402074176685e-07
0.52	-0.4778200252741337	-0.07841012031053968	0.7570039905482517	1.30752091365876	-0.3103570277164618	-0.04496069260603792	-0.3410905136295373	0.6938640249783231	0.6938640249783192	-0.1736544172988373	0.1745036064983372	0.02986060961365258	-0.0511836479528858	-0.7769504197090239	-0.2585796642310504	-0.4851449652256913	2.335866349945873	-0.03053079983568355	0.5864478520227714	-0.5873542019003245	1.680403679799035	1.680403679798992	-0.005572495294860552	0.000186552794715194	0.210704288946492	-0.008728367722236298	-0.2700940859548585	0.01945028785908113	-0.0197274544384589	-0.1895920953772401	0.1316724460097518	0.04780912773850827	0.2375724206039289	3.085867181342684	-23.88667619315517	6.35601677504128	-4.336436255395713	-617.08438091967	-60.46066217691097	-28.02152874500233	0.7320153084204594	0.713523518134256	-0.1714179071300724	-1.903105851963015	0.5504753695638772	-0.3866530971025731	1.850417693655298	-1.321977846746474	-1.321977846746481	0.04000964476151373	-0.01593567965250587	-0.1113448135963235	0.5367181921074902	-2.237378726589045e-07	-7.062040625452125e-07	1.114396203339935e-06	4.696752014555093e-08	-3.011290170300945e-07	6.72037838386011e-08	-2.615190562891104e-07
0.53	-0.4855514127812948	-0.08096003337601357	0.7521449870307937	1.330780520491311	-0.3106362287264273	-0.03911564532409455	-0.3468717197100065	0.7105993298229346	0.7105993298229248	-0.1737108673771203	0.1745050883764137	0.03196116605656245	-0.05124564396185012	-0.7692325475869892	-0.2513891503542708	-0.4865573534409323	2.315765774849788	-0.02532350891042866	0.5824700287846202	-0.5688418258648137	1.666442067528567	1.666442067528433	-0.005698703683653055	0.0001246241856064133	0.2093628202358719	-0.003686434900704794	-0.2783065539036297	0.02005490036426992	-0.01981217104676005	-0.1905038882568537	0.1312652219308655	0.04829036634759999	0.2437778969425037	2.711011549328251	-23.92853783683469	6.246746276449186	-4.214067795067506	-621.5316258120822	-60.0138222687956	-27.04268875982474	0.805818943377429	0.723905256793939	-0.1114576137258172	-2.10696150005598	0.5036380300953625	-0.4173396777246143	1.858425808015421	-1.465479179931799	-1.465479179945445	-0.0361530299417883	0.0006050519986993729	-0.15217481352436	0.4855274993797565	-2.643760332198056e-07	-5.643682245882899e-07	1.312838462510027e-06	9.751413233047074e-08	-3.161137157515999e-07	1.11787293913463e-07	-2.76434577101091e-07
0.54	-0.4932027924113854	-0.08343762331585119	0.7472747979641825	1.353830435940575	-0.3108638004119207	-0.0333131748226461	-0.3524664463802173	0.7271885732922927	0.7271885732922824	-0.1737680229291349	0.1745063362691026	0.03404698242962009	-0.05125770130815844	-0.7609488442936314	-0.2441150391038009	-0.4873820750563028	2.293928073288718	-0.02020493494160667	0.5779324959243386	-0.5500583198486245	1.651191404748709	1.651191404748484	-0.005713590042124657	0.0001397557180457071	0.2077562749760703	0.001259364808982248	-0.2865190218523844	0.02065951286945413	-0.01989688765506372	-0.191415681136465	0.1308579978519774	0.04877160495668591	0.2499833732810953	2.333024537313037	-23.97357535280668	6.142236731057883	-4.114271082612653	-626.050696878909	-59.63870459175036	-26.06519983367489	0.8451815426853094	0.7302429928721396	-0.0538845871560362	-2.250531144959908	0.5327319782773278	-0.4985950215286232	1.904643689791114	-1.579787948624358	-1.57978794862436	0.06227405082575537	-0.0005236513429596868	-0.1643601234328554	0.5174915697385882	-2.453034212659016e-07	-5.058013354278825e-07	1.238654445065473e-06	9.060975416824799e-08	-2.862462971688722e-07	1.297726249874157e-07	-2.586417349536672e-07
0.55	-0.5007686251981703	-0.08584211071636018	0.7423993074841772	1.376653529327984	-0.3110405764292509	-0.02755861487692341	-0.3578720322170003	0.7436189973241343	0.7436189973241277	-0.1738246974522239	0.1745078941559715	0.03611550151725313	-0.0512207153656735	-0.7521286353044782	-0.2367735120604074	-0.4876153922547311	2.270406916381442	-0.01517460083192404	0.5729135628665375	-0.5310260798464931	1.634678063305066	1.634678063304841	-0.00562753381414458	0.0001692832235717617	0.2059040664813269	0.00611162484931004	-0.2945198761297248	0.02105638151922944	-0.01996506463489826	-0.1924779138118186	0.130606448523646	0.04907002565046119	0.2559815594395974	2.002317894830052	-23.94976206136286	6.029341027057612	-4.001999980612844	-630.5148455534179	-59.17301713899537	-25.08976384705085	0.9137719599850072	0.7374642690174246	0.006985026213373296	-2.445497627238737	0.4844346532707002	-0.5136529676437992	1.907429304845486	-1.71935820198584	-1.719358201985931	-0.01919197289644234	0.004050113601773575	-0.2021704975952077	0.4650987590318336	-2.200264433276654e-07	-4.598034755926008e-07	1.129754283062082e-06	7.743473039817012e-08	-2.531592883026809e-07	1.396096659934403e-07	-2.368767296191012e-07
